<svg fill="#9D4300" height="35" width="35" version="1.1" id="Capa_1" xmlns="http://www.w3.org/2000/svg" xmlns:xlink="http://www.w3.org/1999/xlink" viewBox="0 0 60.00 60.00" xml:space="preserve" stroke="#9D4300" stroke-width="0.0006000000000000001">
<g id="SVGRepo_bgCarrier" stroke-width="0"/>
<g id="SVGRepo_tracerCarrier" stroke-linecap="round" stroke-linejoin="round"/>
<g id="SVGRepo_iconCarrier"> <g> <path d="M57.407,35.724l-2.85-2.85c-1.128-1.127-3.092-1.127-4.221,0L34.946,48.265l-2.121,7.779l-0.519,0.519 c-0.388,0.388-0.389,1.014-0.006,1.405l-0.005,0.02l0.019-0.005c0.194,0.191,0.446,0.288,0.699,0.288 c0.256,0,0.512-0.098,0.707-0.293l0.52-0.52l7.778-2.121l15.39-15.391C58.572,38.781,58.572,36.888,57.407,35.724z M37.255,48.784 l10.243-10.243l4.243,4.243L41.498,53.027L37.255,48.784z M36.352,50.71l3.22,3.22l-4.428,1.208L36.352,50.71z M55.993,38.531 l-2.839,2.839l-4.243-4.242l2.839-2.839c0.373-0.373,1.022-0.372,1.394-0.001l2.85,2.85C56.378,37.521,56.378,38.147,55.993,38.531 z"/> <path d="M18.719,22h20V12h-20V22z M21.719,14h14v2h-14V14z M21.719,18h14v2h-14V18z"/> <path d="M47.719,31.249V0h-36h-10v60h10h16.916l3.625-13.293L47.719,31.249z M9.719,58h-6V2h6V58z M16.719,24V10h24v14H16.719z"/> </g> </g>
</svg>
